<?xml version="1.0" encoding="UTF-8" standalone="no"?>
<svg
   xmlns:dc="http://purl.org/dc/elements/1.1/"
   xmlns:cc="http://creativecommons.org/ns#"
   xmlns:rdf="http://www.w3.org/1999/02/22-rdf-syntax-ns#"
   xmlns:svg="http://www.w3.org/2000/svg"
   xmlns="http://www.w3.org/2000/svg"
   xmlns:sodipodi="http://sodipodi.sourceforge.net/DTD/sodipodi-0.dtd"
   xmlns:inkscape="http://www.inkscape.org/namespaces/inkscape"
   version="1.1"
   id="Capa_1"
   x="0px"
   y="0px"
   width="492.892px"
   height="492.892px"
   viewBox="0 0 492.892 492.892"
   style="enable-background:new 0 0 492.892 492.892;"
   xml:space="preserve"
   sodipodi:docname="silueta-de-estrella-dorada.svg"
   inkscape:version="1.0.2-2 (e86c870879, 2021-01-15)"><metadata
   id="metadata917"><rdf:RDF><cc:Work
       rdf:about=""><dc:format>image/svg+xml</dc:format><dc:type
         rdf:resource="http://purl.org/dc/dcmitype/StillImage" /><dc:title></dc:title></cc:Work></rdf:RDF></metadata><defs
   id="defs915" /><sodipodi:namedview
   pagecolor="#ffffff"
   bordercolor="#666666"
   borderopacity="1"
   objecttolerance="10"
   gridtolerance="10"
   guidetolerance="10"
   inkscape:pageopacity="0"
   inkscape:pageshadow="2"
   inkscape:window-width="1920"
   inkscape:window-height="1017"
   id="namedview913"
   showgrid="false"
   inkscape:zoom="1.2619397"
   inkscape:cx="246.446"
   inkscape:cy="246.446"
   inkscape:window-x="-8"
   inkscape:window-y="-8"
   inkscape:window-maximized="1"
   inkscape:current-layer="Capa_1" />
<g
   id="g880">
	<g
   id="g878">
		<path
   d="M232.855,19.773c2.552-5.17,7.817-8.443,13.583-8.443c5.766-0.001,11.032,3.272,13.584,8.442l59.083,119.697    c5.556,11.255,16.294,19.058,28.716,20.862l132.1,19.203c5.706,0.83,10.446,4.826,12.229,10.31    c1.78,5.483,0.296,11.503-3.833,15.528l-95.581,93.181c-8.988,8.763-13.089,21.386-10.969,33.756l22.553,131.547    c0.974,5.683-1.362,11.426-6.027,14.812c-4.664,3.391-10.848,3.836-15.951,1.153l-118.156-62.106    c-11.11-5.84-24.383-5.84-35.495,0.002L110.546,479.82c-5.104,2.683-11.288,2.234-15.952-1.154c-4.665-3.389-7-9.133-6.026-14.814    l22.563-131.537c2.123-12.374-1.979-24.999-10.969-33.764L4.575,205.373c-4.128-4.025-5.615-10.045-3.833-15.528    c1.782-5.483,6.522-9.479,12.228-10.31l132.096-19.202c12.422-1.806,23.161-9.608,28.717-20.865L232.855,19.773z"
   id="path876" />
	</g>
</g>
<g
   id="g882">
</g>
<g
   id="g884">
</g>
<g
   id="g886">
</g>
<g
   id="g888">
</g>
<g
   id="g890">
</g>
<g
   id="g892">
</g>
<g
   id="g894">
</g>
<g
   id="g896">
</g>
<g
   id="g898">
</g>
<g
   id="g900">
</g>
<g
   id="g902">
</g>
<g
   id="g904">
</g>
<g
   id="g906">
</g>
<g
   id="g908">
</g>
<g
   id="g910">
</g>
<path
   style="opacity:0.95;fill:#ffcc00;stroke-width:0.396215;stroke-linejoin:round"
   d="m 96.917203,479.4335 c -4.659961,-2.53261 -7.231859,-6.53021 -7.577929,-11.77866 -0.213156,-3.23274 2.916312,-23.13434 11.247186,-71.52552 6.34838,-36.87559 11.54251,-68.47463 11.54251,-70.22008 0,-7.9081 -3.5681,-18.09465 -8.41145,-24.01379 -1.2575,-1.53682 -24.093631,-24.08092 -50.746949,-50.09799 C 26.317252,225.78038 3.7720601,203.55555 2.8701448,202.40895 c -5.2606967,-6.68788 -0.7189899,-19.35076 7.8129872,-21.78361 1.533506,-0.43728 33.288471,-5.21684 70.566588,-10.62124 47.54568,-6.89294 69.12496,-10.33 72.28932,-11.51394 5.91625,-2.21355 13.05528,-7.53578 16.61756,-12.38858 1.57101,-2.14015 16.45726,-31.49377 33.08055,-65.230264 16.62328,-33.736497 30.91949,-62.315589 31.76934,-63.509095 2.00709,-2.818695 7.55801,-5.475758 11.43951,-5.475758 3.87829,0 9.43193,2.656376 11.43509,5.46955 0.84741,1.19009 15.14942,29.776144 31.78222,63.524564 16.63281,33.748423 31.52104,63.104833 33.08497,65.236473 3.53197,4.81408 10.68665,10.15889 16.52103,12.34181 3.05416,1.14271 25.59761,4.73143 72.68554,11.57091 37.54204,5.45295 69.38855,10.27521 70.77002,10.71613 3.96925,1.26686 8.75512,7.0107 9.3946,11.27511 0.65919,4.39574 -0.63567,8.82397 -3.48332,11.91248 -1.14598,1.24291 -16.34735,16.19595 -33.78083,33.22898 -64.29009,62.81336 -66.76082,65.34453 -69.78204,71.48935 -2.80777,5.71068 -4.31025,11.71844 -4.31025,17.23481 0,1.73302 5.19222,33.33206 11.53826,70.22008 8.29641,48.22501 11.45648,68.32757 11.24718,71.54813 -0.35082,5.39818 -2.98449,9.34523 -7.91345,11.85981 -6.76847,3.45301 -5.18218,4.13922 -72.71944,-31.45763 -64.07235,-33.77059 -66.98786,-35.10918 -76.46958,-35.10918 -9.47146,0 -12.40564,1.3477 -76.46958,35.12308 -56.00624,29.52726 -61.79713,32.40336 -65.77176,32.66623 -3.26944,0.21624 -5.090205,-0.10949 -7.287457,-1.30365 z"
   id="path919" /></svg>
